name D:\school\WTK\thesis\model\3dpredictsim\Results\MidTarsalJoint\Fal_s1_bCst_PF_Natali2010_ls144_MT_nl_fitted_Tmtp_ig24.mot
datacolumns 128
datarows 4
range 1.12733098 1.16115091
endheader
time	pelvis_tilt	pelvis_list	pelvis_rotation	pelvis_tx	pelvis_ty	pelvis_tz	hip_flexion_l	hip_adduction_l	hip_rotation_l	hip_flexion_r	hip_adduction_r	hip_rotation_r	knee_angle_l	knee_angle_r	ankle_angle_l	ankle_angle_r	subtalar_angle_l	subtalar_angle_r	tmt_angle_l	tmt_angle_r	mtp_angle_l	mtp_angle_r	lumbar_extension	lumbar_bending	lumbar_rotation	arm_flex_l	arm_add_l	arm_rot_l	arm_flex_r	arm_add_r	arm_rot_r	elbow_flex_l	elbow_flex_r	pro_sup_l	pro_sup_r	glut_med1_l/activation	glut_med2_l/activation	glut_med3_l/activation	glut_min1_l/activation	glut_min2_l/activation	glut_min3_l/activation	semimem_l/activation	semiten_l/activation	bifemlh_l/activation	bifemsh_l/activation	sar_l/activation	add_long_l/activation	add_brev_l/activation	add_mag1_l/activation	add_mag2_l/activation	add_mag3_l/activation	tfl_l/activation	pect_l/activation	grac_l/activation	glut_max1_l/activation	glut_max2_l/activation	glut_max3_l/activation	iliacus_l/activation	psoas_l/activation	quad_fem_l/activation	gem_l/activation	peri_l/activation	rect_fem_l/activation	vas_med_l/activation	vas_int_l/activation	vas_lat_l/activation	med_gas_l/activation	lat_gas_l/activation	soleus_l/activation	tib_post_l/activation	flex_dig_l/activation	flex_hal_l/activation	tib_ant_l/activation	per_brev_l/activation	per_long_l/activation	per_tert_l/activation	ext_dig_l/activation	ext_hal_l/activation	ercspn_l/activation	intobl_l/activation	extobl_l/activation	glut_med1_r/activation	glut_med2_r/activation	glut_med3_r/activation	glut_min1_r/activation	glut_min2_r/activation	glut_min3_r/activation	semimem_r/activation	semiten_r/activation	bifemlh_r/activation	bifemsh_r/activation	sar_r/activation	add_long_r/activation	add_brev_r/activation	add_mag1_r/activation	add_mag2_r/activation	add_mag3_r/activation	tfl_r/activation	pect_r/activation	grac_r/activation	glut_max1_r/activation	glut_max2_r/activation	glut_max3_r/activation	iliacus_r/activation	psoas_r/activation	quad_fem_r/activation	gem_r/activation	peri_r/activation	rect_fem_r/activation	vas_med_r/activation	vas_int_r/activation	vas_lat_r/activation	med_gas_r/activation	lat_gas_r/activation	soleus_r/activation	tib_post_r/activation	flex_dig_r/activation	flex_hal_r/activation	tib_ant_r/activation	per_brev_r/activation	per_long_r/activation	per_tert_r/activation	ext_dig_r/activation	ext_hal_r/activation	ercspn_r/activation	intobl_r/activation	extobl_r/activation	
          1.12733098	         -2.93017575	         -2.01517299	          5.15047093	          1.40916373	          0.92036667	         -0.00209670	        -16.60108252	         -0.75141936	          6.70545567	         28.76374005	          3.40893747	         -2.79987104	         -8.30101077	        -10.28709975	         -0.50801711	          5.99636345	          8.94214449	         -3.24193673	          1.66221120	         -2.41517901	         14.89565894	          7.61941762	         -2.17604211	          0.36530777	         -2.02498027	          4.34529630	        -13.45478293	         15.18917231	         -5.17260968	        -13.45230241	          5.63950181	         36.26268847	         17.31936064	         86.51662706	         86.51662706	          0.27266100	          0.09850205	          0.07003803	          0.28877369	          0.18749168	          0.09956626	          0.05000509	          0.05000081	          0.05000052	          0.05405317	          0.10397254	          0.10043875	          0.10881092	          0.05000953	          0.05001383	          0.05000363	          0.31046618	          0.10090905	          0.05000644	          0.05000398	          0.05000244	          0.05000290	          0.39063198	          0.62082861	          0.05000047	          0.05000152	          0.05000468	          0.24021857	          0.05001187	          0.05001286	          0.05001745	          0.26372896	          0.35860533	          0.31515319	          0.26000904	          0.24534360	          0.32386730	          0.05000012	          0.05939367	          0.12135828	          0.05000068	          0.05000018	          0.05000066	          0.05000012	          0.05000229	          0.06691905	          0.05939441	          0.05939440	          0.05000049	          0.05939466	          0.05939459	          0.05917155	          0.15630940	          0.08451071	          0.19529184	          0.05725724	          0.05000055	          0.17027677	          0.32646774	          0.15303603	          0.23662573	          0.11060752	          0.05000056	          0.05003961	          0.14256778	          0.05000350	          0.05000694	          0.13540386	          0.05939490	          0.05250162	          0.34509252	          0.28799383	          0.12865115	          0.05000129	          0.12251523	          0.11899745	          0.10925988	          0.06530294	          0.06848792	          0.06218610	          0.05000017	          0.05940381	          0.05000130	          0.51454678	          0.24681851	          0.16123490	          0.18317055	          0.47473199	          0.22517135	          0.05876295	          0.10728090	          0.09346840	
          1.13860429	         -2.92679322	         -2.09824058	          5.40225912	          1.42623793	          0.91957706	         -0.00189751	        -16.42808207	         -1.03456711	          6.53263581	         28.09313867	          3.79435778	         -2.56435694	        -10.28572644	        -10.64893310	         -1.13693961	          5.35620139	          9.93057095	         -3.59530295	          0.97259449	         -2.50521063	         16.45457074	          7.59792177	         -1.97065394	          0.56628314	         -2.09170438	          4.01811914	        -13.46199165	         15.47378683	         -6.01650070	        -13.45179558	          5.40533219	         37.42005888	         16.91303967	         86.51662706	         86.51662706	          0.22953437	          0.08292210	          0.05896109	          0.24309866	          0.15783633	          0.08381802	          0.05001080	          0.05000361	          0.05000937	          0.05000032	          0.08752770	          0.19240235	          0.09161050	          0.05945649	          0.05940199	          0.05939692	          0.26136025	          0.08496249	          0.05004492	          0.05013221	          0.05908057	          0.05939583	          0.32884588	          0.57360569	          0.05939541	          0.05939588	          0.05000261	          0.20222332	          0.13669464	          0.13343918	          0.13172408	          0.22201493	          0.30188476	          0.26530541	          0.21888372	          0.20653853	          0.27264207	          0.05000007	          0.05000051	          0.13776590	          0.05000032	          0.05000011	          0.05000048	          0.06875244	          0.07055367	          0.06019699	          0.05000005	          0.05000015	          0.11338348	          0.05000026	          0.05000025	          0.05000022	          0.13158637	          0.07114393	          0.16440263	          0.05000191	          0.05940793	          0.14334441	          0.33080002	          0.34274046	          0.21760312	          0.11512540	          0.05000105	          0.08051241	          0.15692952	          0.05000609	          0.09776383	          0.13684607	          0.05000091	          0.05002987	          0.56874615	          0.24244196	          0.10830267	          0.05939550	          0.12720028	          0.13440950	          0.10770792	          0.06435060	          0.07050554	          0.06050146	          0.05939418	          0.05000887	          0.05939188	          0.50843706	          0.29899004	          0.20472376	          0.15419888	          0.43710569	          0.18955622	          0.05000003	          0.09031228	          0.07868452	
          1.14987760	         -2.91863260	         -2.18773896	          5.62416619	          1.44360528	          0.91878148	         -0.00172389	        -16.19857164	         -1.31873414	          6.34827139	         27.28407169	          4.05977737	         -2.29819307	        -12.35270968	        -11.09369136	         -1.88032440	          4.84174758	         10.87557731	         -3.96550832	          0.10766758	         -2.66283496	         18.10801060	          7.68214927	         -1.74342386	          0.77972682	         -2.14678734	          3.61464902	        -13.46509439	         15.68509224	         -6.88001750	        -13.46149453	          5.23901890	         38.55891794	         16.53872223	         86.51662706	         86.51662706	          0.33379180	          0.06980649	          0.05000051	          0.33517447	          0.13287193	          0.07056076	          0.05000623	          0.05000062	          0.05000043	          0.05000316	          0.07368622	          0.16197032	          0.07712092	          0.05005263	          0.05000748	          0.05000260	          0.29413747	          0.07153413	          0.05000412	          0.05000568	          0.05000275	          0.05000254	          0.27683269	          0.53869525	          0.05000115	          0.05000304	          0.05000103	          0.17023776	          0.11507387	          0.11233333	          0.11088948	          0.18689881	          0.25413564	          0.22334203	          0.18426297	          0.17387071	          0.22951856	          0.05089094	          0.06837074	          0.16074436	          0.05000130	          0.08796473	          0.05000135	          0.06076066	          0.05939420	          0.05067568	          0.25086395	          0.26357442	          0.31433681	          0.43708468	          0.27737486	          0.23990720	          0.11237028	          0.05989433	          0.13839952	          0.05472082	          0.05001220	          0.12067171	          0.27847749	          0.28852950	          0.18318550	          0.11930920	          0.05000176	          0.06777914	          0.13210865	          0.05000402	          0.11447222	          0.11520179	          0.05003909	          0.05000136	          0.47878762	          0.20409527	          0.21816558	          0.05000112	          0.10708183	          0.11315082	          0.09067245	          0.05417238	          0.05935388	          0.05093203	          0.05000031	          0.05000104	          0.05000143	          0.57403274	          0.32371987	          0.17234303	          0.39887275	          0.51615559	          0.15957726	          0.06438585	          0.11485306	          0.06623902	
          1.16115091	         -2.90772502	         -2.27078035	          5.81089562	          1.46105078	          0.91801435	         -0.00152206	        -15.87469469	         -1.59205072	          6.17952777	         26.42363523	          4.29275906	         -2.03441543	        -14.54635171	        -11.48869875	         -2.69732556	          4.42294589	         11.79520711	         -4.33387675	         -0.95661712	         -2.57924950	         19.80405772	          7.74546842	         -1.51796855	          0.99099574	         -2.19143482	          3.17429034	        -13.47516741	         15.85346006	         -7.71613972	        -13.47185609	          5.14003733	         39.65429391	         16.17252795	         86.51662706	         86.51662706	          0.28099637	          0.05876539	          0.05000038	          0.28216040	          0.11185583	          0.05940035	          0.05000723	          0.05000072	          0.05000072	          0.05000040	          0.06203176	          0.15661677	          0.15814812	          0.05013457	          0.05003733	          0.08686390	          0.24761576	          0.06022577	          0.05000259	          0.05000915	          0.05000583	          0.05000481	          0.23304611	          0.47176952	          0.05000068	          0.05000258	          0.05000074	          0.14331130	          0.11823846	          0.11724748	          0.09955983	          0.15733701	          0.21393901	          0.18801600	          0.15511818	          0.14636993	          0.19321585	          0.11764761	          0.12377472	          0.13532082	          0.05001003	          0.16230023	          0.05249032	          0.07885580	          0.05000008	          0.05000013	          0.35098092	          0.34963956	          0.37798620	          0.36795137	          0.23350410	          0.22495666	          0.09849951	          0.07847077	          0.11650992	          0.05000181	          0.05000404	          0.10158514	          0.23443080	          0.24289341	          0.15421270	          0.15239203	          0.05000127	          0.05705969	          0.11121381	          0.21443766	          0.17871287	          0.14416035	          0.05000025	          0.05000033	          0.40305788	          0.17181376	          0.18365927	          0.05000032	          0.13906327	          0.14831049	          0.11287444	          0.05000013	          0.05000025	          0.05000005	          0.05000010	          0.05000047	          0.05000045	          0.63695673	          0.29549903	          0.15960359	          0.58404765	          0.55374632	          0.29464541	          0.08231097	          0.09668676	          0.05576205	
